<mxfile host="app.diagrams.net" modified="2021-11-09T14:14:12.329Z" agent="5.0 (Macintosh; Intel Mac OS X 10_15_7) AppleWebKit/537.36 (KHTML, like Gecko) Chrome/95.0.4638.69 Safari/537.36" etag="rqTeU5ZsgB_GQoF2-uV7" version="15.2.9" type="github">
  <diagram id="7d9reWZCo9nbwX-BC6QV" name="Page-1">
    <mxGraphModel dx="1298" dy="808" grid="1" gridSize="10" guides="1" tooltips="1" connect="1" arrows="1" fold="1" page="1" pageScale="1" pageWidth="827" pageHeight="1169" math="0" shadow="0">
      <root>
        <mxCell id="0" />
        <mxCell id="1" parent="0" />
        <mxCell id="UKXRJVIdqKgc5XmYuNWf-31" style="edgeStyle=orthogonalEdgeStyle;rounded=0;orthogonalLoop=1;jettySize=auto;html=1;entryX=0.5;entryY=0;entryDx=0;entryDy=0;dashed=1;" edge="1" parent="1" source="UKXRJVIdqKgc5XmYuNWf-1" target="UKXRJVIdqKgc5XmYuNWf-27">
          <mxGeometry relative="1" as="geometry" />
        </mxCell>
        <mxCell id="UKXRJVIdqKgc5XmYuNWf-32" value="学校创建课程" style="edgeLabel;html=1;align=center;verticalAlign=middle;resizable=0;points=[];" vertex="1" connectable="0" parent="UKXRJVIdqKgc5XmYuNWf-31">
          <mxGeometry x="-0.0608" y="-2" relative="1" as="geometry">
            <mxPoint as="offset" />
          </mxGeometry>
        </mxCell>
        <mxCell id="UKXRJVIdqKgc5XmYuNWf-1" value="res_course（课程资源）" style="swimlane;fontStyle=0;childLayout=stackLayout;horizontal=1;startSize=26;fillColor=none;horizontalStack=0;resizeParent=1;resizeParentMax=0;resizeLast=0;collapsible=1;marginBottom=0;" vertex="1" parent="1">
          <mxGeometry x="135" y="200" width="170" height="130" as="geometry" />
        </mxCell>
        <mxCell id="UKXRJVIdqKgc5XmYuNWf-2" value="provider_id // 机构ID" style="text;strokeColor=none;fillColor=none;align=left;verticalAlign=top;spacingLeft=4;spacingRight=4;overflow=hidden;rotatable=0;points=[[0,0.5],[1,0.5]];portConstraint=eastwest;" vertex="1" parent="UKXRJVIdqKgc5XmYuNWf-1">
          <mxGeometry y="26" width="170" height="26" as="geometry" />
        </mxCell>
        <mxCell id="UKXRJVIdqKgc5XmYuNWf-3" value="status // 课程状态 上架、下架" style="text;strokeColor=none;fillColor=none;align=left;verticalAlign=top;spacingLeft=4;spacingRight=4;overflow=hidden;rotatable=0;points=[[0,0.5],[1,0.5]];portConstraint=eastwest;" vertex="1" parent="UKXRJVIdqKgc5XmYuNWf-1">
          <mxGeometry y="52" width="170" height="26" as="geometry" />
        </mxCell>
        <mxCell id="UKXRJVIdqKgc5XmYuNWf-4" value="课程基础信息" style="text;strokeColor=none;fillColor=none;align=left;verticalAlign=top;spacingLeft=4;spacingRight=4;overflow=hidden;rotatable=0;points=[[0,0.5],[1,0.5]];portConstraint=eastwest;" vertex="1" parent="UKXRJVIdqKgc5XmYuNWf-1">
          <mxGeometry y="78" width="170" height="26" as="geometry" />
        </mxCell>
        <mxCell id="UKXRJVIdqKgc5XmYuNWf-53" value="章节资源列表" style="text;strokeColor=none;fillColor=none;align=left;verticalAlign=top;spacingLeft=4;spacingRight=4;overflow=hidden;rotatable=0;points=[[0,0.5],[1,0.5]];portConstraint=eastwest;" vertex="1" parent="UKXRJVIdqKgc5XmYuNWf-1">
          <mxGeometry y="104" width="170" height="26" as="geometry" />
        </mxCell>
        <mxCell id="UKXRJVIdqKgc5XmYuNWf-13" value="res_lesson（章节资源）" style="swimlane;fontStyle=0;childLayout=stackLayout;horizontal=1;startSize=26;fillColor=none;horizontalStack=0;resizeParent=1;resizeParentMax=0;resizeLast=0;collapsible=1;marginBottom=0;" vertex="1" parent="1">
          <mxGeometry x="430" y="304" width="180" height="260" as="geometry" />
        </mxCell>
        <mxCell id="UKXRJVIdqKgc5XmYuNWf-14" value="provider_id // 机构ID" style="text;strokeColor=none;fillColor=none;align=left;verticalAlign=top;spacingLeft=4;spacingRight=4;overflow=hidden;rotatable=0;points=[[0,0.5],[1,0.5]];portConstraint=eastwest;" vertex="1" parent="UKXRJVIdqKgc5XmYuNWf-13">
          <mxGeometry y="26" width="180" height="26" as="geometry" />
        </mxCell>
        <mxCell id="UKXRJVIdqKgc5XmYuNWf-15" value="res_course_id // 课程ID" style="text;strokeColor=none;fillColor=none;align=left;verticalAlign=top;spacingLeft=4;spacingRight=4;overflow=hidden;rotatable=0;points=[[0,0.5],[1,0.5]];portConstraint=eastwest;" vertex="1" parent="UKXRJVIdqKgc5XmYuNWf-13">
          <mxGeometry y="52" width="180" height="26" as="geometry" />
        </mxCell>
        <mxCell id="UKXRJVIdqKgc5XmYuNWf-16" value="章节基础信息" style="text;strokeColor=none;fillColor=none;align=left;verticalAlign=top;spacingLeft=4;spacingRight=4;overflow=hidden;rotatable=0;points=[[0,0.5],[1,0.5]];portConstraint=eastwest;" vertex="1" parent="UKXRJVIdqKgc5XmYuNWf-13">
          <mxGeometry y="78" width="180" height="26" as="geometry" />
        </mxCell>
        <mxCell id="UKXRJVIdqKgc5XmYuNWf-17" value="章节内容：json" style="text;strokeColor=none;fillColor=none;align=left;verticalAlign=top;spacingLeft=4;spacingRight=4;overflow=hidden;rotatable=0;points=[[0,0.5],[1,0.5]];portConstraint=eastwest;" vertex="1" parent="UKXRJVIdqKgc5XmYuNWf-13">
          <mxGeometry y="104" width="180" height="26" as="geometry" />
        </mxCell>
        <mxCell id="UKXRJVIdqKgc5XmYuNWf-20" value="version // 每次修改一个新版本" style="text;strokeColor=none;fillColor=none;align=left;verticalAlign=top;spacingLeft=4;spacingRight=4;overflow=hidden;rotatable=0;points=[[0,0.5],[1,0.5]];portConstraint=eastwest;" vertex="1" parent="UKXRJVIdqKgc5XmYuNWf-13">
          <mxGeometry y="130" width="180" height="26" as="geometry" />
        </mxCell>
        <mxCell id="UKXRJVIdqKgc5XmYuNWf-21" value="章节内容：json // 组合结构" style="text;strokeColor=none;fillColor=none;align=left;verticalAlign=top;spacingLeft=4;spacingRight=4;overflow=hidden;rotatable=0;points=[[0,0.5],[1,0.5]];portConstraint=eastwest;" vertex="1" parent="UKXRJVIdqKgc5XmYuNWf-13">
          <mxGeometry y="156" width="180" height="26" as="geometry" />
        </mxCell>
        <mxCell id="UKXRJVIdqKgc5XmYuNWf-49" value="课程类型 // 课外课、视频课等" style="text;strokeColor=none;fillColor=none;align=left;verticalAlign=top;spacingLeft=4;spacingRight=4;overflow=hidden;rotatable=0;points=[[0,0.5],[1,0.5]];portConstraint=eastwest;" vertex="1" parent="UKXRJVIdqKgc5XmYuNWf-13">
          <mxGeometry y="182" width="180" height="26" as="geometry" />
        </mxCell>
        <mxCell id="UKXRJVIdqKgc5XmYuNWf-56" value="status // 章节状态， 创建、发布" style="text;strokeColor=none;fillColor=none;align=left;verticalAlign=top;spacingLeft=4;spacingRight=4;overflow=hidden;rotatable=0;points=[[0,0.5],[1,0.5]];portConstraint=eastwest;" vertex="1" parent="UKXRJVIdqKgc5XmYuNWf-13">
          <mxGeometry y="208" width="180" height="26" as="geometry" />
        </mxCell>
        <mxCell id="UKXRJVIdqKgc5XmYuNWf-57" value="idx // 章节顺序" style="text;strokeColor=none;fillColor=none;align=left;verticalAlign=top;spacingLeft=4;spacingRight=4;overflow=hidden;rotatable=0;points=[[0,0.5],[1,0.5]];portConstraint=eastwest;" vertex="1" parent="UKXRJVIdqKgc5XmYuNWf-13">
          <mxGeometry y="234" width="180" height="26" as="geometry" />
        </mxCell>
        <mxCell id="UKXRJVIdqKgc5XmYuNWf-19" style="edgeStyle=orthogonalEdgeStyle;rounded=0;orthogonalLoop=1;jettySize=auto;html=1;entryX=-0.021;entryY=0.108;entryDx=0;entryDy=0;entryPerimeter=0;exitX=1;exitY=0.5;exitDx=0;exitDy=0;" edge="1" parent="1" source="UKXRJVIdqKgc5XmYuNWf-53" target="UKXRJVIdqKgc5XmYuNWf-13">
          <mxGeometry relative="1" as="geometry" />
        </mxCell>
        <mxCell id="UKXRJVIdqKgc5XmYuNWf-22" value="" style="shape=curlyBracket;whiteSpace=wrap;html=1;rounded=1;" vertex="1" parent="1">
          <mxGeometry x="700" y="413" width="20" height="120" as="geometry" />
        </mxCell>
        <mxCell id="UKXRJVIdqKgc5XmYuNWf-23" style="edgeStyle=orthogonalEdgeStyle;rounded=0;orthogonalLoop=1;jettySize=auto;html=1;entryX=0.1;entryY=0.5;entryDx=0;entryDy=0;entryPerimeter=0;" edge="1" parent="1" source="UKXRJVIdqKgc5XmYuNWf-21" target="UKXRJVIdqKgc5XmYuNWf-22">
          <mxGeometry relative="1" as="geometry" />
        </mxCell>
        <mxCell id="UKXRJVIdqKgc5XmYuNWf-24" value="内容形式" style="edgeLabel;html=1;align=center;verticalAlign=middle;resizable=0;points=[];" vertex="1" connectable="0" parent="UKXRJVIdqKgc5XmYuNWf-23">
          <mxGeometry x="-0.1087" y="1" relative="1" as="geometry">
            <mxPoint as="offset" />
          </mxGeometry>
        </mxCell>
        <mxCell id="UKXRJVIdqKgc5XmYuNWf-25" value="url（打包资源或者视频/ppt链接）" style="shape=ext;double=1;rounded=0;whiteSpace=wrap;html=1;" vertex="1" parent="1">
          <mxGeometry x="720" y="420" width="190" height="40" as="geometry" />
        </mxCell>
        <mxCell id="UKXRJVIdqKgc5XmYuNWf-26" value="其他内容表的主键ID" style="shape=ext;double=1;rounded=0;whiteSpace=wrap;html=1;" vertex="1" parent="1">
          <mxGeometry x="720" y="484" width="190" height="40" as="geometry" />
        </mxCell>
        <mxCell id="UKXRJVIdqKgc5XmYuNWf-27" value="course" style="swimlane;fontStyle=0;childLayout=stackLayout;horizontal=1;startSize=26;fillColor=none;horizontalStack=0;resizeParent=1;resizeParentMax=0;resizeLast=0;collapsible=1;marginBottom=0;" vertex="1" parent="1">
          <mxGeometry x="150" y="600" width="140" height="182" as="geometry" />
        </mxCell>
        <mxCell id="UKXRJVIdqKgc5XmYuNWf-28" value="school_id" style="text;strokeColor=none;fillColor=none;align=left;verticalAlign=top;spacingLeft=4;spacingRight=4;overflow=hidden;rotatable=0;points=[[0,0.5],[1,0.5]];portConstraint=eastwest;" vertex="1" parent="UKXRJVIdqKgc5XmYuNWf-27">
          <mxGeometry y="26" width="140" height="26" as="geometry" />
        </mxCell>
        <mxCell id="UKXRJVIdqKgc5XmYuNWf-29" value="res_course_id" style="text;strokeColor=none;fillColor=none;align=left;verticalAlign=top;spacingLeft=4;spacingRight=4;overflow=hidden;rotatable=0;points=[[0,0.5],[1,0.5]];portConstraint=eastwest;" vertex="1" parent="UKXRJVIdqKgc5XmYuNWf-27">
          <mxGeometry y="52" width="140" height="26" as="geometry" />
        </mxCell>
        <mxCell id="UKXRJVIdqKgc5XmYuNWf-30" value="provider_id" style="text;strokeColor=none;fillColor=none;align=left;verticalAlign=top;spacingLeft=4;spacingRight=4;overflow=hidden;rotatable=0;points=[[0,0.5],[1,0.5]];portConstraint=eastwest;" vertex="1" parent="UKXRJVIdqKgc5XmYuNWf-27">
          <mxGeometry y="78" width="140" height="26" as="geometry" />
        </mxCell>
        <mxCell id="UKXRJVIdqKgc5XmYuNWf-33" value="class_id // 课班ID" style="text;strokeColor=none;fillColor=none;align=left;verticalAlign=top;spacingLeft=4;spacingRight=4;overflow=hidden;rotatable=0;points=[[0,0.5],[1,0.5]];portConstraint=eastwest;" vertex="1" parent="UKXRJVIdqKgc5XmYuNWf-27">
          <mxGeometry y="104" width="140" height="26" as="geometry" />
        </mxCell>
        <mxCell id="UKXRJVIdqKgc5XmYuNWf-52" value="章节列表" style="text;strokeColor=none;fillColor=none;align=left;verticalAlign=top;spacingLeft=4;spacingRight=4;overflow=hidden;rotatable=0;points=[[0,0.5],[1,0.5]];portConstraint=eastwest;" vertex="1" parent="UKXRJVIdqKgc5XmYuNWf-27">
          <mxGeometry y="130" width="140" height="26" as="geometry" />
        </mxCell>
        <mxCell id="UKXRJVIdqKgc5XmYuNWf-60" value="课程名称" style="text;strokeColor=none;fillColor=none;align=left;verticalAlign=top;spacingLeft=4;spacingRight=4;overflow=hidden;rotatable=0;points=[[0,0.5],[1,0.5]];portConstraint=eastwest;" vertex="1" parent="UKXRJVIdqKgc5XmYuNWf-27">
          <mxGeometry y="156" width="140" height="26" as="geometry" />
        </mxCell>
        <mxCell id="UKXRJVIdqKgc5XmYuNWf-38" value="teacher" style="rounded=0;whiteSpace=wrap;html=1;" vertex="1" parent="1">
          <mxGeometry x="440" y="687" width="90" height="30" as="geometry" />
        </mxCell>
        <mxCell id="UKXRJVIdqKgc5XmYuNWf-39" value="student" style="rounded=0;whiteSpace=wrap;html=1;" vertex="1" parent="1">
          <mxGeometry x="440" y="717" width="90" height="30" as="geometry" />
        </mxCell>
        <mxCell id="UKXRJVIdqKgc5XmYuNWf-40" style="edgeStyle=orthogonalEdgeStyle;rounded=0;orthogonalLoop=1;jettySize=auto;html=1;entryX=0;entryY=0.5;entryDx=0;entryDy=0;exitX=1;exitY=0.5;exitDx=0;exitDy=0;" edge="1" parent="1" source="UKXRJVIdqKgc5XmYuNWf-33" target="UKXRJVIdqKgc5XmYuNWf-38">
          <mxGeometry relative="1" as="geometry">
            <mxPoint x="290" y="720" as="sourcePoint" />
          </mxGeometry>
        </mxCell>
        <mxCell id="UKXRJVIdqKgc5XmYuNWf-41" style="edgeStyle=orthogonalEdgeStyle;rounded=0;orthogonalLoop=1;jettySize=auto;html=1;entryX=0;entryY=0.5;entryDx=0;entryDy=0;exitX=1;exitY=0.5;exitDx=0;exitDy=0;" edge="1" parent="1" source="UKXRJVIdqKgc5XmYuNWf-33" target="UKXRJVIdqKgc5XmYuNWf-39">
          <mxGeometry relative="1" as="geometry" />
        </mxCell>
        <mxCell id="UKXRJVIdqKgc5XmYuNWf-42" value="lesson（章节资源）" style="swimlane;fontStyle=0;childLayout=stackLayout;horizontal=1;startSize=26;fillColor=none;horizontalStack=0;resizeParent=1;resizeParentMax=0;resizeLast=0;collapsible=1;marginBottom=0;" vertex="1" parent="1">
          <mxGeometry x="440" y="770" width="230" height="208" as="geometry" />
        </mxCell>
        <mxCell id="UKXRJVIdqKgc5XmYuNWf-43" value="school_id" style="text;strokeColor=none;fillColor=none;align=left;verticalAlign=top;spacingLeft=4;spacingRight=4;overflow=hidden;rotatable=0;points=[[0,0.5],[1,0.5]];portConstraint=eastwest;" vertex="1" parent="UKXRJVIdqKgc5XmYuNWf-42">
          <mxGeometry y="26" width="230" height="26" as="geometry" />
        </mxCell>
        <mxCell id="UKXRJVIdqKgc5XmYuNWf-44" value="course_id" style="text;strokeColor=none;fillColor=none;align=left;verticalAlign=top;spacingLeft=4;spacingRight=4;overflow=hidden;rotatable=0;points=[[0,0.5],[1,0.5]];portConstraint=eastwest;" vertex="1" parent="UKXRJVIdqKgc5XmYuNWf-42">
          <mxGeometry y="52" width="230" height="26" as="geometry" />
        </mxCell>
        <mxCell id="UKXRJVIdqKgc5XmYuNWf-45" value="res_lesson_id" style="text;strokeColor=none;fillColor=none;align=left;verticalAlign=top;spacingLeft=4;spacingRight=4;overflow=hidden;rotatable=0;points=[[0,0.5],[1,0.5]];portConstraint=eastwest;" vertex="1" parent="UKXRJVIdqKgc5XmYuNWf-42">
          <mxGeometry y="78" width="230" height="26" as="geometry" />
        </mxCell>
        <mxCell id="UKXRJVIdqKgc5XmYuNWf-46" value="res_version // 开课时才设置为当前版本" style="text;strokeColor=none;fillColor=none;align=left;verticalAlign=top;spacingLeft=4;spacingRight=4;overflow=hidden;rotatable=0;points=[[0,0.5],[1,0.5]];portConstraint=eastwest;" vertex="1" parent="UKXRJVIdqKgc5XmYuNWf-42">
          <mxGeometry y="104" width="230" height="26" as="geometry" />
        </mxCell>
        <mxCell id="UKXRJVIdqKgc5XmYuNWf-50" value="lesson_type // 课程类型" style="text;strokeColor=none;fillColor=none;align=left;verticalAlign=top;spacingLeft=4;spacingRight=4;overflow=hidden;rotatable=0;points=[[0,0.5],[1,0.5]];portConstraint=eastwest;" vertex="1" parent="UKXRJVIdqKgc5XmYuNWf-42">
          <mxGeometry y="130" width="230" height="26" as="geometry" />
        </mxCell>
        <mxCell id="UKXRJVIdqKgc5XmYuNWf-51" value="class_room // 上课教室" style="text;strokeColor=none;fillColor=none;align=left;verticalAlign=top;spacingLeft=4;spacingRight=4;overflow=hidden;rotatable=0;points=[[0,0.5],[1,0.5]];portConstraint=eastwest;" vertex="1" parent="UKXRJVIdqKgc5XmYuNWf-42">
          <mxGeometry y="156" width="230" height="26" as="geometry" />
        </mxCell>
        <mxCell id="UKXRJVIdqKgc5XmYuNWf-58" value="idx 章节顺序" style="text;strokeColor=none;fillColor=none;align=left;verticalAlign=top;spacingLeft=4;spacingRight=4;overflow=hidden;rotatable=0;points=[[0,0.5],[1,0.5]];portConstraint=eastwest;" vertex="1" parent="UKXRJVIdqKgc5XmYuNWf-42">
          <mxGeometry y="182" width="230" height="26" as="geometry" />
        </mxCell>
        <mxCell id="UKXRJVIdqKgc5XmYuNWf-55" style="edgeStyle=orthogonalEdgeStyle;rounded=0;orthogonalLoop=1;jettySize=auto;html=1;entryX=0;entryY=0.088;entryDx=0;entryDy=0;entryPerimeter=0;" edge="1" parent="1" source="UKXRJVIdqKgc5XmYuNWf-52" target="UKXRJVIdqKgc5XmYuNWf-42">
          <mxGeometry relative="1" as="geometry" />
        </mxCell>
        <mxCell id="UKXRJVIdqKgc5XmYuNWf-59" value="每个res_lesson_id的发布状态数量为1" style="ellipse;shape=cloud;whiteSpace=wrap;html=1;fillColor=#ffe6cc;strokeColor=#d79b00;" vertex="1" parent="1">
          <mxGeometry x="610" y="490" width="100" height="80" as="geometry" />
        </mxCell>
      </root>
    </mxGraphModel>
  </diagram>
</mxfile>
